<mxfile host="app.diagrams.net" modified="2023-06-08T11:22:13.498Z" agent="Mozilla/5.0 (Windows NT 10.0; Win64; x64) AppleWebKit/537.36 (KHTML, like Gecko) Chrome/113.0.0.0 Safari/537.36 OPR/99.0.0.0 (Edition Yx 05)" etag="E98Md3BmYWOpz-vTP414" version="21.3.7" type="device">
  <diagram name="Страница 1" id="Hof_lZEYLIQdI0QobSQr">
    <mxGraphModel dx="2068" dy="1034" grid="1" gridSize="10" guides="1" tooltips="1" connect="1" arrows="1" fold="1" page="1" pageScale="1" pageWidth="827" pageHeight="1169" math="0" shadow="0">
      <root>
        <mxCell id="0" />
        <mxCell id="1" parent="0" />
        <mxCell id="zqYukjnx9sAV6nAxyi9L-14" style="edgeStyle=orthogonalEdgeStyle;rounded=0;orthogonalLoop=1;jettySize=auto;html=1;" edge="1" parent="1" source="zqYukjnx9sAV6nAxyi9L-1" target="zqYukjnx9sAV6nAxyi9L-2">
          <mxGeometry relative="1" as="geometry" />
        </mxCell>
        <mxCell id="zqYukjnx9sAV6nAxyi9L-1" value="Начало" style="ellipse;whiteSpace=wrap;html=1;" vertex="1" parent="1">
          <mxGeometry x="110" y="20" width="120" height="80" as="geometry" />
        </mxCell>
        <mxCell id="zqYukjnx9sAV6nAxyi9L-15" style="edgeStyle=orthogonalEdgeStyle;rounded=0;orthogonalLoop=1;jettySize=auto;html=1;entryX=0.5;entryY=0;entryDx=0;entryDy=0;" edge="1" parent="1" source="zqYukjnx9sAV6nAxyi9L-2" target="zqYukjnx9sAV6nAxyi9L-4">
          <mxGeometry relative="1" as="geometry" />
        </mxCell>
        <mxCell id="zqYukjnx9sAV6nAxyi9L-2" value="Ввод а" style="shape=parallelogram;perimeter=parallelogramPerimeter;whiteSpace=wrap;html=1;fixedSize=1;" vertex="1" parent="1">
          <mxGeometry x="110" y="130" width="120" height="60" as="geometry" />
        </mxCell>
        <mxCell id="zqYukjnx9sAV6nAxyi9L-16" style="edgeStyle=orthogonalEdgeStyle;rounded=0;orthogonalLoop=1;jettySize=auto;html=1;entryX=0.5;entryY=0;entryDx=0;entryDy=0;" edge="1" parent="1" source="zqYukjnx9sAV6nAxyi9L-4" target="zqYukjnx9sAV6nAxyi9L-9">
          <mxGeometry relative="1" as="geometry" />
        </mxCell>
        <mxCell id="zqYukjnx9sAV6nAxyi9L-4" value="buk = 0" style="rounded=0;whiteSpace=wrap;html=1;" vertex="1" parent="1">
          <mxGeometry x="110" y="220" width="120" height="60" as="geometry" />
        </mxCell>
        <mxCell id="zqYukjnx9sAV6nAxyi9L-13" style="edgeStyle=orthogonalEdgeStyle;rounded=0;orthogonalLoop=1;jettySize=auto;html=1;entryX=0.5;entryY=0;entryDx=0;entryDy=0;" edge="1" parent="1" source="zqYukjnx9sAV6nAxyi9L-9" target="zqYukjnx9sAV6nAxyi9L-12">
          <mxGeometry relative="1" as="geometry" />
        </mxCell>
        <mxCell id="zqYukjnx9sAV6nAxyi9L-18" style="edgeStyle=orthogonalEdgeStyle;rounded=0;orthogonalLoop=1;jettySize=auto;html=1;entryX=0.5;entryY=0;entryDx=0;entryDy=0;" edge="1" parent="1" source="zqYukjnx9sAV6nAxyi9L-9" target="zqYukjnx9sAV6nAxyi9L-17">
          <mxGeometry relative="1" as="geometry" />
        </mxCell>
        <mxCell id="zqYukjnx9sAV6nAxyi9L-9" value="a[1] = &#39; &#39;" style="rhombus;whiteSpace=wrap;html=1;" vertex="1" parent="1">
          <mxGeometry x="110" y="310" width="120" height="100" as="geometry" />
        </mxCell>
        <mxCell id="zqYukjnx9sAV6nAxyi9L-10" value="Нет" style="text;html=1;align=center;verticalAlign=middle;resizable=0;points=[];autosize=1;strokeColor=none;fillColor=none;" vertex="1" parent="1">
          <mxGeometry x="210.00000000000023" y="320" width="40" height="30" as="geometry" />
        </mxCell>
        <mxCell id="zqYukjnx9sAV6nAxyi9L-11" value="Да" style="text;html=1;align=center;verticalAlign=middle;resizable=0;points=[];autosize=1;strokeColor=none;fillColor=none;" vertex="1" parent="1">
          <mxGeometry x="120.00000000000023" y="390" width="40" height="30" as="geometry" />
        </mxCell>
        <mxCell id="zqYukjnx9sAV6nAxyi9L-27" style="edgeStyle=orthogonalEdgeStyle;rounded=0;orthogonalLoop=1;jettySize=auto;html=1;entryX=0.5;entryY=0;entryDx=0;entryDy=0;" edge="1" parent="1" source="zqYukjnx9sAV6nAxyi9L-12" target="zqYukjnx9sAV6nAxyi9L-26">
          <mxGeometry relative="1" as="geometry" />
        </mxCell>
        <mxCell id="zqYukjnx9sAV6nAxyi9L-12" value="slo = 0" style="rounded=0;whiteSpace=wrap;html=1;" vertex="1" parent="1">
          <mxGeometry x="110" y="430" width="120" height="60" as="geometry" />
        </mxCell>
        <mxCell id="zqYukjnx9sAV6nAxyi9L-17" value="slo = 1" style="rounded=0;whiteSpace=wrap;html=1;" vertex="1" parent="1">
          <mxGeometry x="270" y="430" width="120" height="60" as="geometry" />
        </mxCell>
        <mxCell id="zqYukjnx9sAV6nAxyi9L-19" style="edgeStyle=orthogonalEdgeStyle;rounded=0;orthogonalLoop=1;jettySize=auto;html=1;entryX=0.5;entryY=0;entryDx=0;entryDy=0;exitX=0.5;exitY=1;exitDx=0;exitDy=0;" edge="1" parent="1" target="zqYukjnx9sAV6nAxyi9L-23" source="zqYukjnx9sAV6nAxyi9L-26">
          <mxGeometry relative="1" as="geometry">
            <mxPoint x="170" y="600" as="sourcePoint" />
          </mxGeometry>
        </mxCell>
        <mxCell id="zqYukjnx9sAV6nAxyi9L-20" style="edgeStyle=orthogonalEdgeStyle;rounded=0;orthogonalLoop=1;jettySize=auto;html=1;entryX=0.5;entryY=0;entryDx=0;entryDy=0;exitX=1;exitY=0.5;exitDx=0;exitDy=0;" edge="1" parent="1" target="zqYukjnx9sAV6nAxyi9L-24" source="zqYukjnx9sAV6nAxyi9L-26">
          <mxGeometry relative="1" as="geometry">
            <mxPoint x="210" y="560" as="sourcePoint" />
          </mxGeometry>
        </mxCell>
        <mxCell id="zqYukjnx9sAV6nAxyi9L-21" value="Нет" style="text;html=1;align=center;verticalAlign=middle;resizable=0;points=[];autosize=1;strokeColor=none;fillColor=none;" vertex="1" parent="1">
          <mxGeometry x="230.00000000000023" y="530" width="40" height="30" as="geometry" />
        </mxCell>
        <mxCell id="zqYukjnx9sAV6nAxyi9L-22" value="Да" style="text;html=1;align=center;verticalAlign=middle;resizable=0;points=[];autosize=1;strokeColor=none;fillColor=none;" vertex="1" parent="1">
          <mxGeometry x="130.00000000000023" y="600" width="40" height="30" as="geometry" />
        </mxCell>
        <mxCell id="zqYukjnx9sAV6nAxyi9L-30" style="edgeStyle=orthogonalEdgeStyle;rounded=0;orthogonalLoop=1;jettySize=auto;html=1;" edge="1" parent="1" source="zqYukjnx9sAV6nAxyi9L-23" target="zqYukjnx9sAV6nAxyi9L-29">
          <mxGeometry relative="1" as="geometry" />
        </mxCell>
        <mxCell id="zqYukjnx9sAV6nAxyi9L-23" value="slo = slo + 1" style="rounded=0;whiteSpace=wrap;html=1;" vertex="1" parent="1">
          <mxGeometry x="110" y="640" width="120" height="60" as="geometry" />
        </mxCell>
        <mxCell id="zqYukjnx9sAV6nAxyi9L-24" value="buk = buk + 1" style="rounded=0;whiteSpace=wrap;html=1;" vertex="1" parent="1">
          <mxGeometry x="270" y="640" width="120" height="60" as="geometry" />
        </mxCell>
        <mxCell id="zqYukjnx9sAV6nAxyi9L-26" value="a[1] = &#39; &#39;" style="rhombus;whiteSpace=wrap;html=1;" vertex="1" parent="1">
          <mxGeometry x="110" y="520" width="120" height="90" as="geometry" />
        </mxCell>
        <mxCell id="zqYukjnx9sAV6nAxyi9L-28" value="" style="endArrow=classic;html=1;rounded=0;exitX=0.5;exitY=1;exitDx=0;exitDy=0;" edge="1" parent="1" source="zqYukjnx9sAV6nAxyi9L-17">
          <mxGeometry width="50" height="50" relative="1" as="geometry">
            <mxPoint x="440" y="530" as="sourcePoint" />
            <mxPoint x="170" y="510" as="targetPoint" />
            <Array as="points">
              <mxPoint x="330" y="510" />
            </Array>
          </mxGeometry>
        </mxCell>
        <mxCell id="zqYukjnx9sAV6nAxyi9L-33" style="edgeStyle=orthogonalEdgeStyle;rounded=0;orthogonalLoop=1;jettySize=auto;html=1;" edge="1" parent="1" source="zqYukjnx9sAV6nAxyi9L-29" target="zqYukjnx9sAV6nAxyi9L-32">
          <mxGeometry relative="1" as="geometry" />
        </mxCell>
        <mxCell id="zqYukjnx9sAV6nAxyi9L-29" value="i = 2" style="rounded=0;whiteSpace=wrap;html=1;" vertex="1" parent="1">
          <mxGeometry x="110" y="740" width="120" height="60" as="geometry" />
        </mxCell>
        <mxCell id="zqYukjnx9sAV6nAxyi9L-31" value="" style="endArrow=classic;html=1;rounded=0;exitX=0.5;exitY=1;exitDx=0;exitDy=0;" edge="1" parent="1" source="zqYukjnx9sAV6nAxyi9L-24">
          <mxGeometry width="50" height="50" relative="1" as="geometry">
            <mxPoint x="260" y="730" as="sourcePoint" />
            <mxPoint x="170" y="720" as="targetPoint" />
            <Array as="points">
              <mxPoint x="330" y="720" />
            </Array>
          </mxGeometry>
        </mxCell>
        <mxCell id="zqYukjnx9sAV6nAxyi9L-32" value="A" style="ellipse;whiteSpace=wrap;html=1;" vertex="1" parent="1">
          <mxGeometry x="150" y="820" width="40" height="40" as="geometry" />
        </mxCell>
        <mxCell id="zqYukjnx9sAV6nAxyi9L-36" style="edgeStyle=orthogonalEdgeStyle;rounded=0;orthogonalLoop=1;jettySize=auto;html=1;" edge="1" parent="1" source="zqYukjnx9sAV6nAxyi9L-34" target="zqYukjnx9sAV6nAxyi9L-35">
          <mxGeometry relative="1" as="geometry" />
        </mxCell>
        <mxCell id="zqYukjnx9sAV6nAxyi9L-34" value="A" style="ellipse;whiteSpace=wrap;html=1;" vertex="1" parent="1">
          <mxGeometry x="480" y="40" width="40" height="40" as="geometry" />
        </mxCell>
        <mxCell id="zqYukjnx9sAV6nAxyi9L-46" style="edgeStyle=orthogonalEdgeStyle;rounded=0;orthogonalLoop=1;jettySize=auto;html=1;entryX=0.5;entryY=0;entryDx=0;entryDy=0;" edge="1" parent="1" source="zqYukjnx9sAV6nAxyi9L-35" target="zqYukjnx9sAV6nAxyi9L-43">
          <mxGeometry relative="1" as="geometry" />
        </mxCell>
        <mxCell id="zqYukjnx9sAV6nAxyi9L-35" value="A&lt;br&gt;i = length(a)" style="strokeWidth=2;html=1;shape=mxgraph.flowchart.loop_limit;whiteSpace=wrap;" vertex="1" parent="1">
          <mxGeometry x="440" y="110" width="120" height="60" as="geometry" />
        </mxCell>
        <mxCell id="zqYukjnx9sAV6nAxyi9L-37" style="edgeStyle=orthogonalEdgeStyle;rounded=0;orthogonalLoop=1;jettySize=auto;html=1;entryX=0.5;entryY=0;entryDx=0;entryDy=0;exitX=0.5;exitY=1;exitDx=0;exitDy=0;" edge="1" parent="1" source="zqYukjnx9sAV6nAxyi9L-43" target="zqYukjnx9sAV6nAxyi9L-41">
          <mxGeometry relative="1" as="geometry">
            <mxPoint x="500" y="280" as="sourcePoint" />
          </mxGeometry>
        </mxCell>
        <mxCell id="zqYukjnx9sAV6nAxyi9L-38" style="edgeStyle=orthogonalEdgeStyle;rounded=0;orthogonalLoop=1;jettySize=auto;html=1;entryX=0.5;entryY=0;entryDx=0;entryDy=0;exitX=1;exitY=0.5;exitDx=0;exitDy=0;" edge="1" parent="1" source="zqYukjnx9sAV6nAxyi9L-43" target="zqYukjnx9sAV6nAxyi9L-42">
          <mxGeometry relative="1" as="geometry">
            <mxPoint x="540" y="240" as="sourcePoint" />
          </mxGeometry>
        </mxCell>
        <mxCell id="zqYukjnx9sAV6nAxyi9L-39" value="Нет" style="text;html=1;align=center;verticalAlign=middle;resizable=0;points=[];autosize=1;strokeColor=none;fillColor=none;" vertex="1" parent="1">
          <mxGeometry x="560.0000000000002" y="210" width="40" height="30" as="geometry" />
        </mxCell>
        <mxCell id="zqYukjnx9sAV6nAxyi9L-40" value="Да" style="text;html=1;align=center;verticalAlign=middle;resizable=0;points=[];autosize=1;strokeColor=none;fillColor=none;" vertex="1" parent="1">
          <mxGeometry x="460.0000000000002" y="280" width="40" height="30" as="geometry" />
        </mxCell>
        <mxCell id="zqYukjnx9sAV6nAxyi9L-48" style="edgeStyle=orthogonalEdgeStyle;rounded=0;orthogonalLoop=1;jettySize=auto;html=1;entryX=0.5;entryY=0;entryDx=0;entryDy=0;" edge="1" parent="1" source="zqYukjnx9sAV6nAxyi9L-41" target="zqYukjnx9sAV6nAxyi9L-47">
          <mxGeometry relative="1" as="geometry">
            <mxPoint x="500" y="410" as="targetPoint" />
          </mxGeometry>
        </mxCell>
        <mxCell id="zqYukjnx9sAV6nAxyi9L-41" value="slo = slo + 1" style="rounded=0;whiteSpace=wrap;html=1;" vertex="1" parent="1">
          <mxGeometry x="440" y="320" width="120" height="60" as="geometry" />
        </mxCell>
        <mxCell id="zqYukjnx9sAV6nAxyi9L-42" value="buk = buk + 1" style="rounded=0;whiteSpace=wrap;html=1;" vertex="1" parent="1">
          <mxGeometry x="600" y="320" width="120" height="60" as="geometry" />
        </mxCell>
        <mxCell id="zqYukjnx9sAV6nAxyi9L-43" value="a[1] = &#39; &#39;" style="rhombus;whiteSpace=wrap;html=1;" vertex="1" parent="1">
          <mxGeometry x="440" y="200" width="120" height="90" as="geometry" />
        </mxCell>
        <mxCell id="zqYukjnx9sAV6nAxyi9L-53" style="edgeStyle=orthogonalEdgeStyle;rounded=0;orthogonalLoop=1;jettySize=auto;html=1;entryX=0.5;entryY=0;entryDx=0;entryDy=0;" edge="1" parent="1" source="zqYukjnx9sAV6nAxyi9L-47" target="zqYukjnx9sAV6nAxyi9L-52">
          <mxGeometry relative="1" as="geometry" />
        </mxCell>
        <mxCell id="zqYukjnx9sAV6nAxyi9L-47" value="(a[i]= &#39; &#39;) и (a[i-1] = &#39; &#39;)" style="rhombus;whiteSpace=wrap;html=1;" vertex="1" parent="1">
          <mxGeometry x="440" y="415" width="120" height="90" as="geometry" />
        </mxCell>
        <mxCell id="zqYukjnx9sAV6nAxyi9L-49" value="" style="endArrow=classic;html=1;rounded=0;exitX=0.5;exitY=1;exitDx=0;exitDy=0;" edge="1" parent="1" source="zqYukjnx9sAV6nAxyi9L-42">
          <mxGeometry width="50" height="50" relative="1" as="geometry">
            <mxPoint x="580" y="400" as="sourcePoint" />
            <mxPoint x="500" y="400" as="targetPoint" />
            <Array as="points">
              <mxPoint x="660" y="400" />
            </Array>
          </mxGeometry>
        </mxCell>
        <mxCell id="zqYukjnx9sAV6nAxyi9L-50" value="нет" style="text;html=1;align=center;verticalAlign=middle;resizable=0;points=[];autosize=1;strokeColor=none;fillColor=none;" vertex="1" parent="1">
          <mxGeometry x="560" y="430" width="40" height="30" as="geometry" />
        </mxCell>
        <mxCell id="zqYukjnx9sAV6nAxyi9L-51" value="да" style="text;html=1;align=center;verticalAlign=middle;resizable=0;points=[];autosize=1;strokeColor=none;fillColor=none;" vertex="1" parent="1">
          <mxGeometry x="450" y="500" width="40" height="30" as="geometry" />
        </mxCell>
        <mxCell id="zqYukjnx9sAV6nAxyi9L-58" style="edgeStyle=orthogonalEdgeStyle;rounded=0;orthogonalLoop=1;jettySize=auto;html=1;entryX=0.5;entryY=0;entryDx=0;entryDy=0;" edge="1" parent="1" source="zqYukjnx9sAV6nAxyi9L-52" target="zqYukjnx9sAV6nAxyi9L-57">
          <mxGeometry relative="1" as="geometry" />
        </mxCell>
        <mxCell id="zqYukjnx9sAV6nAxyi9L-52" value="slo = slo-1" style="rounded=0;whiteSpace=wrap;html=1;" vertex="1" parent="1">
          <mxGeometry x="440" y="525" width="120" height="60" as="geometry" />
        </mxCell>
        <mxCell id="zqYukjnx9sAV6nAxyi9L-54" value="" style="endArrow=classic;html=1;rounded=0;exitX=1;exitY=0.5;exitDx=0;exitDy=0;" edge="1" parent="1" source="zqYukjnx9sAV6nAxyi9L-47">
          <mxGeometry width="50" height="50" relative="1" as="geometry">
            <mxPoint x="580" y="520" as="sourcePoint" />
            <mxPoint x="500" y="600" as="targetPoint" />
            <Array as="points">
              <mxPoint x="670" y="460" />
              <mxPoint x="670" y="600" />
            </Array>
          </mxGeometry>
        </mxCell>
        <mxCell id="zqYukjnx9sAV6nAxyi9L-60" style="edgeStyle=orthogonalEdgeStyle;rounded=0;orthogonalLoop=1;jettySize=auto;html=1;entryX=0.5;entryY=1;entryDx=0;entryDy=0;entryPerimeter=0;" edge="1" parent="1" source="zqYukjnx9sAV6nAxyi9L-57" target="zqYukjnx9sAV6nAxyi9L-59">
          <mxGeometry relative="1" as="geometry" />
        </mxCell>
        <mxCell id="zqYukjnx9sAV6nAxyi9L-57" value="i = i + 1" style="rounded=0;whiteSpace=wrap;html=1;" vertex="1" parent="1">
          <mxGeometry x="440" y="620" width="120" height="60" as="geometry" />
        </mxCell>
        <mxCell id="zqYukjnx9sAV6nAxyi9L-62" style="edgeStyle=orthogonalEdgeStyle;rounded=0;orthogonalLoop=1;jettySize=auto;html=1;entryX=0.5;entryY=0;entryDx=0;entryDy=0;" edge="1" parent="1" source="zqYukjnx9sAV6nAxyi9L-59" target="zqYukjnx9sAV6nAxyi9L-61">
          <mxGeometry relative="1" as="geometry" />
        </mxCell>
        <mxCell id="zqYukjnx9sAV6nAxyi9L-59" value="A" style="strokeWidth=2;html=1;shape=mxgraph.flowchart.loop_limit;whiteSpace=wrap;rotation=-180;" vertex="1" parent="1">
          <mxGeometry x="440" y="710" width="120" height="60" as="geometry" />
        </mxCell>
        <mxCell id="zqYukjnx9sAV6nAxyi9L-64" value="" style="edgeStyle=orthogonalEdgeStyle;rounded=0;orthogonalLoop=1;jettySize=auto;html=1;" edge="1" parent="1" source="zqYukjnx9sAV6nAxyi9L-61" target="zqYukjnx9sAV6nAxyi9L-63">
          <mxGeometry relative="1" as="geometry" />
        </mxCell>
        <mxCell id="zqYukjnx9sAV6nAxyi9L-61" value="Вывести slo, buk" style="shape=parallelogram;perimeter=parallelogramPerimeter;whiteSpace=wrap;html=1;fixedSize=1;" vertex="1" parent="1">
          <mxGeometry x="440" y="800" width="120" height="60" as="geometry" />
        </mxCell>
        <mxCell id="zqYukjnx9sAV6nAxyi9L-63" value="Конец" style="ellipse;whiteSpace=wrap;html=1;" vertex="1" parent="1">
          <mxGeometry x="440" y="880" width="120" height="80" as="geometry" />
        </mxCell>
      </root>
    </mxGraphModel>
  </diagram>
</mxfile>
